# xmcd
#
# Track frame offsets: 
#        150
#        17550
#        37555
#        62827
#
# Disc length: 1117 seconds
#
# Revision: 3
# Processed by: cddbd v1.4PL0 Copyright (c) Steve Scherf et al.
# Submitted via: ExactAudioCopy v0.95a3
#
DISCID=22045b04
DTITLE=José Mercé - Del Amanecer [CD2)
DYEAR=1998
DGENRE=
TTITLE0=Quitate Niña de los Balcones
TTITLE1=Los Campanilleros
TTITLE2=Fandangos
TTITLE3=Lo Digo y lo Voy a Hacer
EXTD=YEAR: 2002
EXTT0=
EXTT1=
EXTT2=
EXTT3=
PLAYORDER=
